<?xml version="1.0" encoding="utf-8"?>
<!-- Generator: Adobe Illustrator 21.0.0, SVG Export Plug-In . SVG Version: 6.00 Build 0)  -->
<svg version="1.1" xmlns="http://www.w3.org/2000/svg" xmlns:xlink="http://www.w3.org/1999/xlink" x="0px" y="0px"
	 viewBox="0 0 200 200" style="enable-background:new 0 0 200 200;" xml:space="preserve">
<style type="text/css">
	.st0{fill:none;stroke:#FFFFFF;stroke-width:2;stroke-miterlimit:10;}
	.st1{display:none;}
	.st2{display:inline;fill:none;stroke:#FFFFFF;stroke-width:2;stroke-miterlimit:10;}
	.st3{display:inline;fill:none;stroke:#FFFFFF;stroke-width:2;stroke-linecap:square;stroke-miterlimit:10;}
	.st4{display:inline;}
</style>
<g id="Layer_1">
	<g id="Layer_1_1_">
		<rect width="200" height="200"/>
		<polyline class="st0" points="200,200 0,200 0,0 		"/>
		<g id="Layer_3">
		</g>
	</g>
	<g id="draw" class="st1">
		
			<rect x="43" y="72.6" transform="matrix(0.7071 -0.7071 0.7071 0.7071 -34.7058 100.3808)" class="st2" width="121.6" height="38.9"/>
		<polygon class="st3" points="41,130.2 31.9,164 65.7,154.9 		"/>
		<line class="st3" x1="64.9" y1="164.5" x2="171.9" y2="164.5"/>
	</g>
	<g id="circle" class="st1">
		<circle class="st2" cx="100" cy="100" r="70"/>
	</g>
</g>
<g id="triangle" class="st1">
	<polygon class="st2" points="100,38 30,159.3 170,159.3 	"/>
</g>
<g id="ok" class="st1">
	<g class="st4">
		<line class="st0" x1="29.8" y1="105.8" x2="72.5" y2="148.5"/>
		<line class="st0" x1="72.5" y1="148.5" x2="169.8" y2="51.2"/>
	</g>
</g>
<g id="sq" class="st1">
	<rect x="40" y="40" class="st2" width="120" height="120"/>
</g>
<g id="hex" class="st1">
	<polygon class="st2" points="135,39.4 65,39.4 30,100 65,160.6 135,160.6 170,100 	"/>
</g>
<g id="erase">
	<line class="st0" x1="160" y1="160" x2="40" y2="40"/>
	<line class="st0" x1="40" y1="160" x2="160" y2="40"/>
</g>
</svg>
